<svg width="36" height="36" viewBox="0 0 36 36" fill="none" xmlns="http://www.w3.org/2000/svg">
<path d="M29.25 5.625H6.75C4.88604 5.625 3.375 7.13604 3.375 9V29.25C3.375 31.114 4.88604 32.625 6.75 32.625H29.25C31.114 32.625 32.625 31.114 32.625 29.25V9C32.625 7.13604 31.114 5.625 29.25 5.625Z" stroke="black" stroke-width="2.5" stroke-linejoin="round"/>
<path d="M20.8125 18C21.7445 18 22.5 17.2445 22.5 16.3125C22.5 15.3805 21.7445 14.625 20.8125 14.625C19.8805 14.625 19.125 15.3805 19.125 16.3125C19.125 17.2445 19.8805 18 20.8125 18Z" fill="black"/>
<path d="M26.4375 18C27.3695 18 28.125 17.2445 28.125 16.3125C28.125 15.3805 27.3695 14.625 26.4375 14.625C25.5055 14.625 24.75 15.3805 24.75 16.3125C24.75 17.2445 25.5055 18 26.4375 18Z" fill="black"/>
<path d="M20.8125 23.625C21.7445 23.625 22.5 22.8695 22.5 21.9375C22.5 21.0055 21.7445 20.25 20.8125 20.25C19.8805 20.25 19.125 21.0055 19.125 21.9375C19.125 22.8695 19.8805 23.625 20.8125 23.625Z" fill="black"/>
<path d="M26.4375 23.625C27.3695 23.625 28.125 22.8695 28.125 21.9375C28.125 21.0055 27.3695 20.25 26.4375 20.25C25.5055 20.25 24.75 21.0055 24.75 21.9375C24.75 22.8695 25.5055 23.625 26.4375 23.625Z" fill="black"/>
<path d="M9.5625 23.625C10.4945 23.625 11.25 22.8695 11.25 21.9375C11.25 21.0055 10.4945 20.25 9.5625 20.25C8.63052 20.25 7.875 21.0055 7.875 21.9375C7.875 22.8695 8.63052 23.625 9.5625 23.625Z" fill="black"/>
<path d="M15.1875 23.625C16.1195 23.625 16.875 22.8695 16.875 21.9375C16.875 21.0055 16.1195 20.25 15.1875 20.25C14.2555 20.25 13.5 21.0055 13.5 21.9375C13.5 22.8695 14.2555 23.625 15.1875 23.625Z" fill="black"/>
<path d="M9.5625 29.25C10.4945 29.25 11.25 28.4945 11.25 27.5625C11.25 26.6305 10.4945 25.875 9.5625 25.875C8.63052 25.875 7.875 26.6305 7.875 27.5625C7.875 28.4945 8.63052 29.25 9.5625 29.25Z" fill="black"/>
<path d="M15.1875 29.25C16.1195 29.25 16.875 28.4945 16.875 27.5625C16.875 26.6305 16.1195 25.875 15.1875 25.875C14.2555 25.875 13.5 26.6305 13.5 27.5625C13.5 28.4945 14.2555 29.25 15.1875 29.25Z" fill="black"/>
<path d="M20.8125 29.25C21.7445 29.25 22.5 28.4945 22.5 27.5625C22.5 26.6305 21.7445 25.875 20.8125 25.875C19.8805 25.875 19.125 26.6305 19.125 27.5625C19.125 28.4945 19.8805 29.25 20.8125 29.25Z" fill="black"/>
<path d="M9 3.375V5.625M27 3.375V5.625" stroke="black" stroke-width="2.5" stroke-linecap="round" stroke-linejoin="round"/>
<path d="M32.625 11.25H3.375" stroke="black" stroke-width="2.5" stroke-linejoin="round"/>
</svg>
