<svg width="40" height="40" viewBox="0 0 40 40" fill="none" xmlns="http://www.w3.org/2000/svg">
<path d="M4.33334 10.0391C4.33334 9.0962 5.04694 8.33334 5.92534 8.33334H18.7413C19.1636 8.33334 19.5685 8.51305 19.8671 8.83294C20.1656 9.15282 20.3333 9.58667 20.3333 10.0391C20.3333 10.4914 20.1656 10.9253 19.8671 11.2452C19.5685 11.5651 19.1636 11.7448 18.7413 11.7448H5.92534C5.50312 11.7448 5.09819 11.5651 4.79963 11.2452C4.50107 10.9253 4.33334 10.4914 4.33334 10.0391ZM4.33334 20.3333C4.33334 19.3905 5.04694 18.6276 5.92534 18.6276H34.7413C35.1636 18.6276 35.5685 18.8073 35.8671 19.1272C36.1656 19.4471 36.3333 19.881 36.3333 20.3333C36.3333 20.7857 36.1656 21.2196 35.8671 21.5395C35.5685 21.8593 35.1636 22.0391 34.7413 22.0391H5.92534C5.50312 22.0391 5.09819 21.8593 4.79963 21.5395C4.50107 21.2196 4.33334 20.7857 4.33334 20.3333ZM5.92534 28.9219C5.50312 28.9219 5.09819 29.1016 4.79963 29.4215C4.50107 29.7414 4.33334 30.1752 4.33334 30.6276C4.33334 31.08 4.50107 31.5139 4.79963 31.8338C5.09819 32.1536 5.50312 32.3333 5.92534 32.3333H25.1413C25.5636 32.3333 25.9685 32.1536 26.2671 31.8338C26.5656 31.5139 26.7333 31.08 26.7333 30.6276C26.7333 30.1752 26.5656 29.7414 26.2671 29.4215C25.9685 29.1016 25.5636 28.9219 25.1413 28.9219H5.92534Z" fill="black"/>
</svg>
